Coordinates
version=1
nRows=11
nColumns=40
inDegrees=yes
endheader
time	pelvis_tilt	pelvis_list	pelvis_rotation	pelvis_tx	pelvis_ty	pelvis_tz	hip_flexion_r	hip_adduction_r	hip_rotation_r	knee_angle_r	knee_angle_r_beta	ankle_angle_r	subtalar_angle_r	mtp_angle_r	hip_flexion_l	hip_adduction_l	hip_rotation_l	knee_angle_l	knee_angle_l_beta	ankle_angle_l	subtalar_angle_l	mtp_angle_l	lumbar_extension	lumbar_bending	lumbar_rotation	arm_flex_r	arm_add_r	arm_rot_r	elbow_flex_r	pro_sup_r	wrist_flex_r	wrist_dev_r	arm_flex_l	arm_add_l	arm_rot_l	elbow_flex_l	pro_sup_l	wrist_flex_l	wrist_dev_l
1760624559.58899999	      0.26982510	     -0.05801354	     -0.02891700	     -0.03194468	      0.94899720	     -0.00324932	     80.00000000	     -7.00000000	      0.00000000	     80.00000000	      1.39626340	      0.00000000	      0.00000000	      0.00000000	     80.00000000	     -7.00000000	      0.00000000	     80.00000000	      1.39626340	      0.00000000	      0.00000000	      0.00000000	    -10.43327591	     -2.46749784	     -7.85346560	     10.27156142	      3.22540295	      7.29529110	      0.00000000	      0.04467979	     -0.42921089	      0.68604535	     10.99559845	     -7.67860319	    -25.21111390	      0.00000000	     18.12417161	     -1.39574581	      2.37996986
1760624559.62199998	      0.26805023	     -0.08410472	     -0.01560359	     -0.03019805	      0.95095531	     -0.00356999	     80.00000000	     -7.00000000	      0.00000000	     80.00000000	      1.39626340	      0.00000000	      0.00000000	      0.00000000	     80.00000000	     -7.00000000	      0.00000000	     80.00000000	      1.39626340	      0.00000000	      0.00000000	      0.00000000	     -9.70080478	     -2.34885639	     -7.56098742	      9.61562879	      2.97116082	      7.09116168	      0.00000000	      0.01894795	     -0.41431789	      0.68747543	     10.33414203	     -7.43474973	    -25.06953075	      0.00000000	     18.21821321	     -1.41381019	      2.37550684
1760624559.65499997	      0.25918785	     -0.09024236	     -0.00779634	     -0.02943869	      0.95111463	     -0.00331782	     80.00000000	     -7.00000000	      0.00000000	     80.00000000	      1.39626340	      0.00000000	      0.00000000	      0.00000000	     80.00000000	     -7.00000000	      0.00000000	     80.00000000	      1.39626340	      0.00000000	      0.00000000	      0.00000000	     -8.74368775	     -2.46093647	     -7.04422109	      8.72155056	      2.87417957	      6.66383588	      0.00000000	      0.00000000	     -0.43967414	      0.68216114	      9.35571364	     -7.35209151	    -24.85860887	      0.00000000	     18.48540833	     -1.36253755	      2.36031297
1760624559.68899989	      0.27330902	     -0.10254258	      0.00220854	     -0.02930947	      0.95193920	     -0.00411048	     80.00000000	     -7.00000000	      0.00000000	     80.00000000	      1.39626340	      0.00000000	      0.00000000	      0.00000000	     80.00000000	     -7.00000000	      0.00000000	     80.00000000	      1.39626340	      0.00000000	      0.00000000	      0.00000000	     -8.85494587	     -2.33145639	     -7.24413850	      8.84421295	      2.78585553	      6.87280582	      0.00000000	      0.00000000	     -0.42994228	      0.70417853	      9.44612517	     -7.29585085	    -24.92396463	      0.00000000	     18.39280064	     -1.36054140	      2.36849462
1760624559.72199988	      0.27685459	     -0.10344051	      0.01454992	     -0.02859790	      0.95217876	     -0.00410556	     80.00000000	     -7.00000000	      0.00000000	     80.00000000	      1.39626340	      0.00000000	      0.00000000	      0.00000000	     80.00000000	     -7.00000000	      0.00000000	     80.00000000	      1.39626340	      0.00000000	      0.00000000	      0.00000000	     -9.15361282	     -2.35444059	     -7.61245011	      9.13625305	      2.88990852	      7.24311668	      0.00000000	      0.00000000	     -0.42808991	      0.69715980	      9.79829886	     -7.42412465	    -24.97570883	      0.00000000	     18.14320469	     -1.39471103	      2.37307505
1760624559.75600004	      0.29046512	     -0.11490835	      0.02021688	     -0.02797634	      0.95224638	     -0.00460275	     80.00000000	     -7.00000000	      0.00000000	     80.00000000	      1.39626340	      0.00000000	      0.00000000	      0.00000000	     80.00000000	     -7.00000000	      0.00000000	     80.00000000	      1.39626340	      0.00000000	      0.00000000	      0.00000000	     -9.01513517	     -2.28757393	     -7.60006328	      9.00372049	      2.81003321	      7.27702505	      0.00000000	      0.00000000	     -0.44807698	      0.70718943	      9.67727510	     -7.35632599	    -24.89088897	      0.00000000	     18.04694980	     -1.39436038	      2.33408090
1760624559.78900003	      0.27650301	     -0.11749131	      0.02439293	     -0.02766877	      0.95231704	     -0.00451371	     80.00000000	     -7.00000000	      0.00000000	     80.00000000	      1.39626340	      0.00000000	      0.00000000	      0.00000000	     80.00000000	     -7.00000000	      0.00000000	     80.00000000	      1.39626340	      0.00000000	      0.00000000	      0.00000000	     -9.00560679	     -2.28907198	     -7.59503952	      9.01221582	      2.81666838	      7.29798450	      0.00000000	      0.00000000	     -0.43876131	      0.69016962	      9.68660524	     -7.36739454	    -24.88043267	      0.00000000	     18.04170614	     -1.36245093	      2.34630171
1760624559.82299995	      0.27713905	     -0.11912681	      0.04055639	     -0.02709893	      0.95265831	     -0.00448236	     80.00000000	     -7.00000000	      0.00000000	     80.00000000	      1.39626340	      0.00000000	      0.00000000	      0.00000000	     80.00000000	     -7.00000000	      0.00000000	     80.00000000	      1.39626340	      0.00000000	      0.00000000	      0.00000000	     -9.00989391	     -2.27259254	     -7.60284316	      9.00637076	      2.82897385	      7.38481690	      0.00000000	      0.00000000	     -0.41994114	      0.65907783	      9.71972407	     -7.38330082	    -24.84102950	      0.00000000	     18.05139126	     -1.38348947	      2.38229727
1760624559.85599995	      0.27616216	     -0.11523855	      0.06406860	     -0.02689311	      0.95269625	     -0.00419655	     80.00000000	     -7.00000000	      0.00000000	     80.00000000	      1.39626340	      0.00000000	      0.00000000	      0.00000000	     80.00000000	     -7.00000000	      0.00000000	     80.00000000	      1.39626340	      0.00000000	      0.00000000	      0.00000000	     -9.01412892	     -2.26876299	     -7.58275134	      9.00324981	      2.84686479	      7.43487836	      0.00000000	      0.00000000	     -0.42448719	      0.66220820	      9.71991230	     -7.37945547	    -24.81544707	      0.00000000	     18.06933813	     -1.37686031	      2.36944776
1760624559.89000010	      0.28099710	     -0.11249689	      0.08013403	     -0.02605492	      0.95303483	     -0.00392762	     80.00000000	     -7.00000000	      0.00000000	     80.00000000	      1.39626340	      0.00000000	      0.00000000	      0.00000000	     80.00000000	     -7.00000000	      0.00000000	     80.00000000	      1.39626340	      0.00000000	      0.00000000	      0.00000000	     -9.13410550	     -2.31512330	     -7.85530483	      9.09558766	      2.98149134	      7.70824145	      0.00000000	      0.02236866	     -0.41418239	      0.68187165	      9.89261717	     -7.38080767	    -22.34822719	      0.00000000	     15.42708478	     -1.42750680	      2.37439822
1760624559.92300010	      0.27856031	     -0.12344364	      0.09691488	     -0.02561298	      0.95335661	     -0.00361922	     80.00000000	     -7.00000000	      0.00000000	     80.00000000	      1.39626340	      0.00000000	      0.00000000	      0.00000000	     80.00000000	     -7.00000000	      0.00000000	     80.00000000	      1.39626340	      0.00000000	      0.00000000	      0.00000000	     -9.31056262	     -2.28861879	     -7.99935978	      9.26822081	      3.06696309	      7.87404477	      0.00000000	      0.00000000	     -0.41035243	      0.67937567	     10.11004319	     -7.42918921	    -22.34273527	      0.00000000	     15.32709207	     -1.47051383	      2.38904023
